# xmcd
#
# Track frame offsets:
#	150
#	10267
#	24088
#	39172
#	51575
#	64089
#	80549
#	91238
#	105529
#	122468
#	133223
#	150720
#	167532
#
# Disc length: 2418 seconds
#
# Revision: 0
# Processed by: cddbd v1.5.2PL0 Copyright (c) Steve Scherf et al.
# Submitted via: EasyCDDAExtractor 16.0.6.1
#
DISCID=9809700d
DTITLE=Συλλογικός δίσκος - Δώδεκα και μία ματιές στα Δωδεκάνησα
DYEAR=2005
DGENRE=Παραδοσιακή
TTITLE0=Το Τρίφωνο - Πέρα στους πέρα κάμπους [Ρόδος]
TTITLE1=Θαλασσινός Παντελής - Στο κάστρο της Αστυπαλιάς [Αστυπάλαια]
TTITLE2=Κουλιά Καίτη - Το μαρούλι [Κάλυμνος]
TTITLE3=Πασχαλίδης Μίλτος - Στα μάρμαρα του Γαλατά [Κάρπαθος]
TTITLE4=Μπάσης Δημήτρης - Ω, σιγανέ μου ποταμέ [Πάτμος]
TTITLE5=Πάριος Γιάννης - Σαν πας στα ξένα [Κως]
TTITLE6=Μαριώ - Ερήνη πού 'σουν το πουρνό [Τήλος]
TTITLE7=Περαντάκος Γιώργος - Παπάς [Λέρος]
TTITLE8=Πυροβολάκης Μάνος - Στην άμμο άμμο πάενα [Χάλκη]
TTITLE9=Γλυκερία - Μικρό τρεχαντηράκι [Σύμη]
TTITLE10=Χαρούλης Γιάννης - Το πισωμέρι [Κάσος]
TTITLE11=Παπάζογλου Σοφία - Το περιόλι [Νίσυρος]
TTITLE12=Ζώη Μαρία - Μικρό μου Καστελόριζο [Καστελόριζο]
EXTD=
EXTT0=
EXTT1=
EXTT2=
EXTT3=
EXTT4=
EXTT5=
EXTT6=
EXTT7=
EXTT8=
EXTT9=
EXTT10=
EXTT11=
EXTT12=
PLAYORDER=
